<mxfile host="Electron" modified="2023-05-17T20:39:26.123Z" agent="Mozilla/5.0 (Windows NT 10.0; Win64; x64) AppleWebKit/537.36 (KHTML, like Gecko) draw.io/21.2.8 Chrome/112.0.5615.165 Electron/24.2.0 Safari/537.36" etag="m2yrCb_iUCZLl1HeuKez" version="21.2.8" type="device">
  <diagram name="Pagina-1" id="L4_dCMqwDuk0K8gRmxJO">
    <mxGraphModel dx="1501" dy="613" grid="1" gridSize="10" guides="1" tooltips="1" connect="1" arrows="1" fold="1" page="1" pageScale="1" pageWidth="827" pageHeight="1169" math="0" shadow="0">
      <root>
        <mxCell id="0" />
        <mxCell id="1" parent="0" />
        <mxCell id="26elExdHqMxmlbkfilKy-1" style="edgeStyle=orthogonalEdgeStyle;rounded=0;orthogonalLoop=1;jettySize=auto;html=1;exitX=0.5;exitY=1;exitDx=0;exitDy=0;endArrow=none;endFill=0;dashed=1;entryX=0.02;entryY=1.003;entryDx=0;entryDy=0;entryPerimeter=0;exitPerimeter=0;" parent="1" source="26elExdHqMxmlbkfilKy-2" edge="1">
          <mxGeometry relative="1" as="geometry">
            <mxPoint x="-65" y="1744" as="targetPoint" />
            <mxPoint x="-65" y="480" as="sourcePoint" />
          </mxGeometry>
        </mxCell>
        <mxCell id="26elExdHqMxmlbkfilKy-2" value="UI" style="shape=folder;fontStyle=1;spacingTop=10;tabWidth=40;tabHeight=14;tabPosition=left;html=1;whiteSpace=wrap;fillColor=#fff2cc;strokeColor=#d6b656;" parent="1" vertex="1">
          <mxGeometry x="-100" y="340" width="70" height="50" as="geometry" />
        </mxCell>
        <mxCell id="26elExdHqMxmlbkfilKy-3" style="edgeStyle=orthogonalEdgeStyle;rounded=0;orthogonalLoop=1;jettySize=auto;html=1;exitX=0.5;exitY=1;exitDx=0;exitDy=0;endArrow=none;endFill=0;dashed=1;entryX=0.15;entryY=1.001;entryDx=0;entryDy=0;entryPerimeter=0;" parent="1" edge="1">
          <mxGeometry relative="1" as="geometry">
            <mxPoint x="280" y="1751" as="targetPoint" />
            <mxPoint x="280" y="390" as="sourcePoint" />
          </mxGeometry>
        </mxCell>
        <mxCell id="26elExdHqMxmlbkfilKy-4" value="eventManager: EventManager" style="html=1;whiteSpace=wrap;fillColor=#fff2cc;strokeColor=#d6b656;" parent="1" vertex="1">
          <mxGeometry x="180" y="360" width="200" height="30" as="geometry" />
        </mxCell>
        <mxCell id="26elExdHqMxmlbkfilKy-6" value="eevListener: EventEventReceiver" style="html=1;whiteSpace=wrap;fillColor=#fff2cc;strokeColor=#d6b656;" parent="1" vertex="1">
          <mxGeometry x="690" y="280" width="160" height="30" as="geometry" />
        </mxCell>
        <mxCell id="26elExdHqMxmlbkfilKy-8" style="edgeStyle=orthogonalEdgeStyle;rounded=0;orthogonalLoop=1;jettySize=auto;html=1;exitX=0.5;exitY=1;exitDx=0;exitDy=0;endArrow=none;endFill=0;dashed=1;entryX=0.15;entryY=1.001;entryDx=0;entryDy=0;entryPerimeter=0;" parent="1" edge="1">
          <mxGeometry relative="1" as="geometry">
            <mxPoint x="769.41" y="1671" as="targetPoint" />
            <mxPoint x="769.41" y="310" as="sourcePoint" />
          </mxGeometry>
        </mxCell>
        <mxCell id="26elExdHqMxmlbkfilKy-11" value="newService: Service" style="html=1;whiteSpace=wrap;fillColor=#fff2cc;strokeColor=#d6b656;" parent="1" vertex="1">
          <mxGeometry x="900" y="360" width="140" height="30" as="geometry" />
        </mxCell>
        <mxCell id="26elExdHqMxmlbkfilKy-12" style="edgeStyle=orthogonalEdgeStyle;rounded=0;orthogonalLoop=1;jettySize=auto;html=1;exitX=0.5;exitY=1;exitDx=0;exitDy=0;endArrow=none;endFill=0;dashed=1;entryX=0.15;entryY=1.001;entryDx=0;entryDy=0;entryPerimeter=0;" parent="1" edge="1">
          <mxGeometry relative="1" as="geometry">
            <mxPoint x="969.4399999999999" y="1751" as="targetPoint" />
            <mxPoint x="969.4399999999999" y="390" as="sourcePoint" />
          </mxGeometry>
        </mxCell>
        <mxCell id="26elExdHqMxmlbkfilKy-19" value="" style="html=1;verticalAlign=bottom;endArrow=none;dashed=1;endSize=8;edgeStyle=elbowEdgeStyle;elbow=vertical;curved=0;rounded=0;endFill=0;fillColor=#f8cecc;strokeColor=#b85450;" parent="1" edge="1">
          <mxGeometry relative="1" as="geometry">
            <mxPoint x="1473" y="530" as="sourcePoint" />
            <mxPoint x="-60" y="530" as="targetPoint" />
            <Array as="points">
              <mxPoint x="450" y="540" />
            </Array>
          </mxGeometry>
        </mxCell>
        <mxCell id="26elExdHqMxmlbkfilKy-34" value="" style="html=1;points=[];perimeter=orthogonalPerimeter;outlineConnect=0;targetShapes=umlLifeline;portConstraint=eastwest;newEdgeStyle={&quot;edgeStyle&quot;:&quot;elbowEdgeStyle&quot;,&quot;elbow&quot;:&quot;vertical&quot;,&quot;curved&quot;:0,&quot;rounded&quot;:0};shadow=0;imageAspect=1;fillOpacity=50;strokeOpacity=50;" parent="1" vertex="1">
          <mxGeometry x="275" y="550" width="10" height="680" as="geometry" />
        </mxCell>
        <mxCell id="26elExdHqMxmlbkfilKy-37" value="&lt;p style=&quot;text-indent: -18pt;&quot; class=&quot;MsoListParagraph&quot;&gt;&lt;b&gt;&lt;span style=&quot;line-height: 107%;&quot;&gt;&lt;span style=&quot;mso-list:Ignore&quot;&gt;3.&lt;span style=&quot;font-style: normal; font-variant: normal; font-kerning: auto; font-optical-sizing: auto; font-feature-settings: normal; font-variation-settings: normal; font-weight: normal; font-stretch: normal; line-height: normal; font-family: &amp;quot;Times New Roman&amp;quot;;&quot;&gt;&amp;nbsp;&amp;nbsp; &lt;/span&gt;&lt;/span&gt;&lt;/span&gt;&lt;/b&gt;&lt;span style=&quot;mso-spacerun:yes&quot;&gt;&amp;nbsp;&lt;/span&gt;&lt;b&gt;&lt;span style=&quot;&quot;&gt;aggiungiServizio(&lt;u&gt;nome:&lt;/u&gt; testo ,&lt;u&gt;orarioInizio&lt;/u&gt;: orario, &lt;u&gt;orarioFine:&amp;nbsp;&lt;/u&gt;orario, &lt;u&gt;qtyPersonale&lt;/u&gt;: qtyPersonale, &lt;u&gt;dettagli&lt;/u&gt;: testo)&lt;/span&gt;&lt;/b&gt;&lt;/p&gt;" style="text;whiteSpace=wrap;html=1;" parent="1" vertex="1">
          <mxGeometry y="180" width="660" height="50" as="geometry" />
        </mxCell>
        <mxCell id="26elExdHqMxmlbkfilKy-39" value="addService(name, startTime, endTime, staffQty, details)" style="html=1;verticalAlign=bottom;endArrow=block;edgeStyle=elbowEdgeStyle;elbow=vertical;curved=0;rounded=0;" parent="1" edge="1">
          <mxGeometry x="-0.1478" width="80" relative="1" as="geometry">
            <mxPoint x="-60" y="428.82" as="sourcePoint" />
            <mxPoint x="270" y="430" as="targetPoint" />
            <mxPoint as="offset" />
          </mxGeometry>
        </mxCell>
        <mxCell id="26elExdHqMxmlbkfilKy-41" value="currentEvent.services: ArrayList&amp;lt;Service&amp;gt;" style="html=1;whiteSpace=wrap;fillColor=#fff2cc;strokeColor=#d6b656;" parent="1" vertex="1">
          <mxGeometry x="1100" y="360" width="180" height="30" as="geometry" />
        </mxCell>
        <mxCell id="26elExdHqMxmlbkfilKy-42" value="eventManager.currentEvent: Event" style="html=1;whiteSpace=wrap;fillColor=#fff2cc;strokeColor=#d6b656;" parent="1" vertex="1">
          <mxGeometry x="510" y="360" width="200" height="30" as="geometry" />
        </mxCell>
        <mxCell id="26elExdHqMxmlbkfilKy-43" style="edgeStyle=orthogonalEdgeStyle;rounded=0;orthogonalLoop=1;jettySize=auto;html=1;exitX=0.5;exitY=1;exitDx=0;exitDy=0;endArrow=none;endFill=0;dashed=1;entryX=0.15;entryY=1.001;entryDx=0;entryDy=0;entryPerimeter=0;" parent="1" edge="1">
          <mxGeometry relative="1" as="geometry">
            <mxPoint x="609.41" y="1751" as="targetPoint" />
            <mxPoint x="609.41" y="390" as="sourcePoint" />
          </mxGeometry>
        </mxCell>
        <mxCell id="26elExdHqMxmlbkfilKy-44" value="addService(name, startTime, endTime, staffQty, details)" style="html=1;verticalAlign=bottom;endArrow=block;edgeStyle=elbowEdgeStyle;elbow=vertical;curved=0;rounded=0;" parent="1" edge="1">
          <mxGeometry x="-0.1478" width="80" relative="1" as="geometry">
            <mxPoint x="285" y="568.8199999999999" as="sourcePoint" />
            <mxPoint x="600" y="560" as="targetPoint" />
            <mxPoint as="offset" />
          </mxGeometry>
        </mxCell>
        <mxCell id="26elExdHqMxmlbkfilKy-45" value="create(name, startTime, endTime, staffQty, details)" style="html=1;verticalAlign=bottom;endArrow=block;edgeStyle=elbowEdgeStyle;elbow=vertical;curved=0;rounded=0;" parent="1" edge="1">
          <mxGeometry x="-0.2562" width="80" relative="1" as="geometry">
            <mxPoint x="620" y="580" as="sourcePoint" />
            <mxPoint x="970" y="581" as="targetPoint" />
            <mxPoint as="offset" />
          </mxGeometry>
        </mxCell>
        <mxCell id="26elExdHqMxmlbkfilKy-47" value="this.name = name" style="html=1;align=left;spacingLeft=2;endArrow=block;rounded=0;edgeStyle=orthogonalEdgeStyle;curved=0;rounded=0;" parent="1" edge="1">
          <mxGeometry relative="1" as="geometry">
            <mxPoint x="970" y="590" as="sourcePoint" />
            <Array as="points">
              <mxPoint x="1000" y="590" />
              <mxPoint x="1000" y="610" />
              <mxPoint x="975" y="610" />
            </Array>
            <mxPoint x="970" y="610" as="targetPoint" />
          </mxGeometry>
        </mxCell>
        <mxCell id="26elExdHqMxmlbkfilKy-48" value="this.startTime = startTime" style="html=1;align=left;spacingLeft=2;endArrow=block;rounded=0;edgeStyle=orthogonalEdgeStyle;curved=0;rounded=0;" parent="1" edge="1">
          <mxGeometry relative="1" as="geometry">
            <mxPoint x="970" y="620" as="sourcePoint" />
            <Array as="points">
              <mxPoint x="1000" y="620" />
              <mxPoint x="1000" y="640" />
              <mxPoint x="975" y="640" />
            </Array>
            <mxPoint x="970" y="640" as="targetPoint" />
          </mxGeometry>
        </mxCell>
        <mxCell id="26elExdHqMxmlbkfilKy-49" value="this.endTime = endTime" style="html=1;align=left;spacingLeft=2;endArrow=block;rounded=0;edgeStyle=orthogonalEdgeStyle;curved=0;rounded=0;" parent="1" edge="1">
          <mxGeometry relative="1" as="geometry">
            <mxPoint x="970" y="650" as="sourcePoint" />
            <Array as="points">
              <mxPoint x="1000" y="650" />
              <mxPoint x="1000" y="670" />
              <mxPoint x="975" y="670" />
            </Array>
            <mxPoint x="970" y="670" as="targetPoint" />
          </mxGeometry>
        </mxCell>
        <mxCell id="26elExdHqMxmlbkfilKy-50" value="this.staffQty = staffQty" style="html=1;align=left;spacingLeft=2;endArrow=block;rounded=0;edgeStyle=orthogonalEdgeStyle;curved=0;rounded=0;" parent="1" edge="1">
          <mxGeometry relative="1" as="geometry">
            <mxPoint x="970" y="680" as="sourcePoint" />
            <Array as="points">
              <mxPoint x="1000" y="680" />
              <mxPoint x="1000" y="700" />
              <mxPoint x="975" y="700" />
            </Array>
            <mxPoint x="970" y="700" as="targetPoint" />
          </mxGeometry>
        </mxCell>
        <mxCell id="26elExdHqMxmlbkfilKy-51" value="this.details = details" style="html=1;align=left;spacingLeft=2;endArrow=block;rounded=0;edgeStyle=orthogonalEdgeStyle;curved=0;rounded=0;" parent="1" edge="1">
          <mxGeometry relative="1" as="geometry">
            <mxPoint x="970" y="710" as="sourcePoint" />
            <Array as="points">
              <mxPoint x="1000" y="710" />
              <mxPoint x="1000" y="730" />
              <mxPoint x="975" y="730" />
            </Array>
            <mxPoint x="970" y="730" as="targetPoint" />
          </mxGeometry>
        </mxCell>
        <mxCell id="26elExdHqMxmlbkfilKy-52" value="newService" style="html=1;verticalAlign=bottom;endArrow=open;dashed=1;endSize=8;edgeStyle=elbowEdgeStyle;elbow=vertical;curved=0;rounded=0;" parent="1" edge="1">
          <mxGeometry x="0.778" relative="1" as="geometry">
            <mxPoint x="970" y="930" as="sourcePoint" />
            <mxPoint x="615" y="930" as="targetPoint" />
            <mxPoint as="offset" />
          </mxGeometry>
        </mxCell>
        <mxCell id="26elExdHqMxmlbkfilKy-53" value="add(newService)" style="html=1;verticalAlign=bottom;endArrow=block;edgeStyle=elbowEdgeStyle;elbow=vertical;curved=0;rounded=0;" parent="1" edge="1">
          <mxGeometry x="-0.8276" width="80" relative="1" as="geometry">
            <mxPoint x="610" y="980" as="sourcePoint" />
            <mxPoint x="1190" y="980" as="targetPoint" />
            <mxPoint as="offset" />
          </mxGeometry>
        </mxCell>
        <mxCell id="26elExdHqMxmlbkfilKy-54" style="edgeStyle=orthogonalEdgeStyle;rounded=0;orthogonalLoop=1;jettySize=auto;html=1;exitX=0.5;exitY=1;exitDx=0;exitDy=0;endArrow=none;endFill=0;dashed=1;entryX=0.15;entryY=1.001;entryDx=0;entryDy=0;entryPerimeter=0;" parent="1" edge="1">
          <mxGeometry relative="1" as="geometry">
            <mxPoint x="1189.58" y="1754" as="targetPoint" />
            <mxPoint x="1189.58" y="393" as="sourcePoint" />
          </mxGeometry>
        </mxCell>
        <mxCell id="26elExdHqMxmlbkfilKy-55" value="" style="html=1;points=[];perimeter=orthogonalPerimeter;outlineConnect=0;targetShapes=umlLifeline;portConstraint=eastwest;newEdgeStyle={&quot;edgeStyle&quot;:&quot;elbowEdgeStyle&quot;,&quot;elbow&quot;:&quot;vertical&quot;,&quot;curved&quot;:0,&quot;rounded&quot;:0};shadow=0;imageAspect=1;fillOpacity=50;strokeOpacity=50;" parent="1" vertex="1">
          <mxGeometry x="1185" y="980" width="10" height="20" as="geometry" />
        </mxCell>
        <mxCell id="26elExdHqMxmlbkfilKy-56" value="" style="html=1;points=[];perimeter=orthogonalPerimeter;outlineConnect=0;targetShapes=umlLifeline;portConstraint=eastwest;newEdgeStyle={&quot;edgeStyle&quot;:&quot;elbowEdgeStyle&quot;,&quot;elbow&quot;:&quot;vertical&quot;,&quot;curved&quot;:0,&quot;rounded&quot;:0};shadow=0;imageAspect=1;fillOpacity=50;strokeOpacity=50;" parent="1" vertex="1">
          <mxGeometry x="965" y="580" width="10" height="340" as="geometry" />
        </mxCell>
        <mxCell id="26elExdHqMxmlbkfilKy-57" value="this.menu = null" style="html=1;align=left;spacingLeft=2;endArrow=block;rounded=0;edgeStyle=orthogonalEdgeStyle;curved=0;rounded=0;" parent="1" edge="1">
          <mxGeometry relative="1" as="geometry">
            <mxPoint x="975" y="740" as="sourcePoint" />
            <Array as="points">
              <mxPoint x="1005" y="740" />
              <mxPoint x="1005" y="760" />
              <mxPoint x="980" y="760" />
            </Array>
            <mxPoint x="975" y="760" as="targetPoint" />
          </mxGeometry>
        </mxCell>
        <mxCell id="26elExdHqMxmlbkfilKy-58" value="this.summarySheet = null" style="html=1;align=left;spacingLeft=2;endArrow=block;rounded=0;edgeStyle=orthogonalEdgeStyle;curved=0;rounded=0;" parent="1" edge="1">
          <mxGeometry relative="1" as="geometry">
            <mxPoint x="975" y="770" as="sourcePoint" />
            <Array as="points">
              <mxPoint x="1005" y="770" />
              <mxPoint x="1005" y="790" />
              <mxPoint x="980" y="790" />
            </Array>
            <mxPoint x="975" y="790" as="targetPoint" />
          </mxGeometry>
        </mxCell>
        <mxCell id="26elExdHqMxmlbkfilKy-59" value="newService" style="html=1;verticalAlign=bottom;endArrow=open;dashed=1;endSize=8;edgeStyle=elbowEdgeStyle;elbow=vertical;curved=0;rounded=0;" parent="1" edge="1">
          <mxGeometry x="0.778" relative="1" as="geometry">
            <mxPoint x="610" y="1030" as="sourcePoint" />
            <mxPoint x="285" y="1030" as="targetPoint" />
            <mxPoint as="offset" />
            <Array as="points">
              <mxPoint x="450" y="1030" />
            </Array>
          </mxGeometry>
        </mxCell>
        <mxCell id="26elExdHqMxmlbkfilKy-60" value="notifyAddedService(newService)" style="html=1;align=left;spacingLeft=2;endArrow=block;rounded=0;edgeStyle=orthogonalEdgeStyle;curved=0;rounded=0;" parent="1" edge="1">
          <mxGeometry relative="1" as="geometry">
            <mxPoint x="285" y="1070" as="sourcePoint" />
            <Array as="points">
              <mxPoint x="315" y="1070" />
              <mxPoint x="315" y="1090" />
              <mxPoint x="290" y="1090" />
            </Array>
            <mxPoint x="285" y="1090" as="targetPoint" />
          </mxGeometry>
        </mxCell>
        <mxCell id="26elExdHqMxmlbkfilKy-61" value="&lt;font style=&quot;font-size: 10px;&quot;&gt;LOOP:for all receivers in&amp;nbsp;&lt;/font&gt;&lt;font style=&quot;font-size: 9px;&quot;&gt;eevListener&lt;/font&gt;" style="shape=umlFrame;whiteSpace=wrap;html=1;pointerEvents=0;width=200;height=20;" parent="1" vertex="1">
          <mxGeometry x="257" y="1110" width="570" height="100" as="geometry" />
        </mxCell>
        <mxCell id="26elExdHqMxmlbkfilKy-62" value="updateAddedService(newService)" style="html=1;verticalAlign=bottom;endArrow=block;edgeStyle=elbowEdgeStyle;elbow=vertical;curved=0;rounded=0;align=center;" parent="1" edge="1">
          <mxGeometry x="-0.6483" y="1" width="80" relative="1" as="geometry">
            <mxPoint x="285" y="1170.06" as="sourcePoint" />
            <mxPoint x="770" y="1170" as="targetPoint" />
            <mxPoint as="offset" />
          </mxGeometry>
        </mxCell>
        <mxCell id="26elExdHqMxmlbkfilKy-63" value="" style="html=1;points=[];perimeter=orthogonalPerimeter;outlineConnect=0;targetShapes=umlLifeline;portConstraint=eastwest;newEdgeStyle={&quot;edgeStyle&quot;:&quot;elbowEdgeStyle&quot;,&quot;elbow&quot;:&quot;vertical&quot;,&quot;curved&quot;:0,&quot;rounded&quot;:0};shadow=0;imageAspect=1;fillOpacity=50;strokeOpacity=50;" parent="1" vertex="1">
          <mxGeometry x="765" y="1170" width="10" height="20" as="geometry" />
        </mxCell>
        <mxCell id="26elExdHqMxmlbkfilKy-64" value="newService" style="html=1;verticalAlign=bottom;endArrow=open;dashed=1;endSize=8;edgeStyle=elbowEdgeStyle;elbow=vertical;curved=0;rounded=0;" parent="1" edge="1">
          <mxGeometry x="0.778" relative="1" as="geometry">
            <mxPoint x="275" y="1230" as="sourcePoint" />
            <mxPoint x="-55" y="1230" as="targetPoint" />
            <mxPoint as="offset" />
            <Array as="points">
              <mxPoint x="110" y="1230" />
            </Array>
          </mxGeometry>
        </mxCell>
        <mxCell id="26elExdHqMxmlbkfilKy-65" value="ALT startTime.compareTo(LocalDate.now) &amp;lt; 0 || startTime.compareTo(eventManager.currentEvent.startTime) &amp;lt; 0" style="shape=umlFrame;whiteSpace=wrap;html=1;pointerEvents=0;fillColor=#f8cecc;strokeColor=#b85450;width=410;height=30;" parent="1" vertex="1">
          <mxGeometry x="-70" y="440" width="1540" height="830" as="geometry" />
        </mxCell>
        <mxCell id="26elExdHqMxmlbkfilKy-66" value="throwServiceException" style="html=1;verticalAlign=bottom;endArrow=open;dashed=1;endSize=8;edgeStyle=elbowEdgeStyle;elbow=vertical;curved=0;rounded=0;" parent="1" edge="1">
          <mxGeometry relative="1" as="geometry">
            <mxPoint x="275" y="500" as="sourcePoint" />
            <mxPoint x="-65" y="500" as="targetPoint" />
          </mxGeometry>
        </mxCell>
        <mxCell id="26elExdHqMxmlbkfilKy-67" value="this.state = 0" style="html=1;align=left;spacingLeft=2;endArrow=block;rounded=0;edgeStyle=orthogonalEdgeStyle;curved=0;rounded=0;" parent="1" edge="1">
          <mxGeometry relative="1" as="geometry">
            <mxPoint x="975" y="799.95" as="sourcePoint" />
            <Array as="points">
              <mxPoint x="1005" y="799.95" />
              <mxPoint x="1005" y="819.95" />
              <mxPoint x="980" y="819.95" />
            </Array>
            <mxPoint x="975" y="819.95" as="targetPoint" />
          </mxGeometry>
        </mxCell>
        <mxCell id="26elExdHqMxmlbkfilKy-68" value="create()" style="html=1;verticalAlign=bottom;endArrow=block;edgeStyle=elbowEdgeStyle;elbow=vertical;curved=0;rounded=0;" parent="1" edge="1">
          <mxGeometry x="-0.7664" width="80" relative="1" as="geometry">
            <mxPoint x="970" y="850" as="sourcePoint" />
            <mxPoint x="1320" y="851" as="targetPoint" />
            <mxPoint as="offset" />
          </mxGeometry>
        </mxCell>
        <mxCell id="26elExdHqMxmlbkfilKy-69" value="serviceDuties: ArrayList&amp;lt;ServiceDuty&amp;gt;" style="html=1;whiteSpace=wrap;fillColor=#fff2cc;strokeColor=#d6b656;" parent="1" vertex="1">
          <mxGeometry x="1320" y="820" width="140" height="30" as="geometry" />
        </mxCell>
        <mxCell id="26elExdHqMxmlbkfilKy-70" style="edgeStyle=orthogonalEdgeStyle;rounded=0;orthogonalLoop=1;jettySize=auto;html=1;exitX=0.5;exitY=1;exitDx=0;exitDy=0;endArrow=none;endFill=0;dashed=1;entryX=0.15;entryY=1.001;entryDx=0;entryDy=0;entryPerimeter=0;" parent="1" edge="1">
          <mxGeometry relative="1" as="geometry">
            <mxPoint x="1389.5" y="2211" as="targetPoint" />
            <mxPoint x="1389.5" y="850" as="sourcePoint" />
          </mxGeometry>
        </mxCell>
        <mxCell id="26elExdHqMxmlbkfilKy-71" value="" style="html=1;points=[];perimeter=orthogonalPerimeter;outlineConnect=0;targetShapes=umlLifeline;portConstraint=eastwest;newEdgeStyle={&quot;edgeStyle&quot;:&quot;elbowEdgeStyle&quot;,&quot;elbow&quot;:&quot;vertical&quot;,&quot;curved&quot;:0,&quot;rounded&quot;:0};shadow=0;imageAspect=1;fillOpacity=50;strokeOpacity=50;" parent="1" vertex="1">
          <mxGeometry x="1385" y="860" width="10" height="20" as="geometry" />
        </mxCell>
        <mxCell id="26elExdHqMxmlbkfilKy-72" value="serviceDuties" style="html=1;verticalAlign=bottom;endArrow=open;dashed=1;endSize=8;edgeStyle=elbowEdgeStyle;elbow=vertical;curved=0;rounded=0;" parent="1" edge="1">
          <mxGeometry x="0.778" relative="1" as="geometry">
            <mxPoint x="1385" y="880.29" as="sourcePoint" />
            <mxPoint x="970" y="880" as="targetPoint" />
            <mxPoint as="offset" />
          </mxGeometry>
        </mxCell>
        <mxCell id="26elExdHqMxmlbkfilKy-73" value="this.serviceDuties = serviceDuties&amp;nbsp;" style="html=1;align=left;spacingLeft=2;endArrow=block;rounded=0;edgeStyle=orthogonalEdgeStyle;curved=0;rounded=0;" parent="1" edge="1">
          <mxGeometry relative="1" as="geometry">
            <mxPoint x="975" y="900" as="sourcePoint" />
            <Array as="points">
              <mxPoint x="1005" y="900.05" />
              <mxPoint x="1005" y="920.05" />
            </Array>
            <mxPoint x="975" y="920" as="targetPoint" />
          </mxGeometry>
        </mxCell>
      </root>
    </mxGraphModel>
  </diagram>
</mxfile>
